<mxfile host="Electron" agent="Mozilla/5.0 (Windows NT 10.0; Win64; x64) AppleWebKit/537.36 (KHTML, like Gecko) draw.io/28.2.5 Chrome/138.0.7204.251 Electron/37.6.1 Safari/537.36" version="28.2.5">
  <diagram name="Page-1" id="bzze4LHVQ7JUYoYE5f9L">
    <mxGraphModel dx="456" dy="482" grid="1" gridSize="10" guides="1" tooltips="1" connect="1" arrows="1" fold="1" page="1" pageScale="1" pageWidth="850" pageHeight="1100" math="0" shadow="0">
      <root>
        <mxCell id="0" />
        <mxCell id="1" parent="0" />
        <mxCell id="YH6l0BzgWT5LhHd5m2PT-5" style="rounded=0;orthogonalLoop=1;jettySize=auto;html=1;exitX=1;exitY=1;exitDx=0;exitDy=0;entryX=0;entryY=0;entryDx=0;entryDy=0;endArrow=none;endFill=0;" edge="1" parent="1" source="YH6l0BzgWT5LhHd5m2PT-12" target="YH6l0BzgWT5LhHd5m2PT-3">
          <mxGeometry relative="1" as="geometry" />
        </mxCell>
        <mxCell id="YH6l0BzgWT5LhHd5m2PT-6" style="rounded=0;orthogonalLoop=1;jettySize=auto;html=1;exitX=0.5;exitY=1;exitDx=0;exitDy=0;entryX=0.5;entryY=0;entryDx=0;entryDy=0;endArrow=none;endFill=0;" edge="1" parent="1" source="YH6l0BzgWT5LhHd5m2PT-9" target="YH6l0BzgWT5LhHd5m2PT-4">
          <mxGeometry relative="1" as="geometry" />
        </mxCell>
        <mxCell id="YH6l0BzgWT5LhHd5m2PT-1" value="students" style="rounded=0;whiteSpace=wrap;html=1;" vertex="1" parent="1">
          <mxGeometry x="40" y="80" width="100" height="50" as="geometry" />
        </mxCell>
        <mxCell id="YH6l0BzgWT5LhHd5m2PT-8" style="rounded=0;orthogonalLoop=1;jettySize=auto;html=1;exitX=0.5;exitY=1;exitDx=0;exitDy=0;entryX=0.5;entryY=0;entryDx=0;entryDy=0;endArrow=none;endFill=0;" edge="1" parent="1" source="YH6l0BzgWT5LhHd5m2PT-2" target="YH6l0BzgWT5LhHd5m2PT-3">
          <mxGeometry relative="1" as="geometry" />
        </mxCell>
        <mxCell id="YH6l0BzgWT5LhHd5m2PT-2" value="lecturers" style="rounded=0;whiteSpace=wrap;html=1;" vertex="1" parent="1">
          <mxGeometry x="300" y="80" width="100" height="50" as="geometry" />
        </mxCell>
        <mxCell id="YH6l0BzgWT5LhHd5m2PT-7" style="rounded=0;orthogonalLoop=1;jettySize=auto;html=1;exitX=0;exitY=0.5;exitDx=0;exitDy=0;entryX=1;entryY=0.5;entryDx=0;entryDy=0;endArrow=none;endFill=0;" edge="1" parent="1" source="YH6l0BzgWT5LhHd5m2PT-3" target="YH6l0BzgWT5LhHd5m2PT-4">
          <mxGeometry relative="1" as="geometry" />
        </mxCell>
        <mxCell id="YH6l0BzgWT5LhHd5m2PT-31" style="rounded=0;orthogonalLoop=1;jettySize=auto;html=1;exitX=0.25;exitY=1;exitDx=0;exitDy=0;entryX=0.5;entryY=0;entryDx=0;entryDy=0;endArrow=none;endFill=0;" edge="1" parent="1" source="YH6l0BzgWT5LhHd5m2PT-3" target="YH6l0BzgWT5LhHd5m2PT-29">
          <mxGeometry relative="1" as="geometry" />
        </mxCell>
        <mxCell id="YH6l0BzgWT5LhHd5m2PT-32" style="rounded=0;orthogonalLoop=1;jettySize=auto;html=1;exitX=0.5;exitY=1;exitDx=0;exitDy=0;entryX=0.5;entryY=0;entryDx=0;entryDy=0;endArrow=none;endFill=0;" edge="1" parent="1" source="YH6l0BzgWT5LhHd5m2PT-3" target="YH6l0BzgWT5LhHd5m2PT-28">
          <mxGeometry relative="1" as="geometry" />
        </mxCell>
        <mxCell id="YH6l0BzgWT5LhHd5m2PT-33" style="rounded=0;orthogonalLoop=1;jettySize=auto;html=1;exitX=0.75;exitY=1;exitDx=0;exitDy=0;entryX=0.5;entryY=0;entryDx=0;entryDy=0;endArrow=none;endFill=0;" edge="1" parent="1" source="YH6l0BzgWT5LhHd5m2PT-3" target="YH6l0BzgWT5LhHd5m2PT-30">
          <mxGeometry relative="1" as="geometry" />
        </mxCell>
        <mxCell id="YH6l0BzgWT5LhHd5m2PT-3" value="events" style="rounded=0;whiteSpace=wrap;html=1;" vertex="1" parent="1">
          <mxGeometry x="300" y="300" width="100" height="50" as="geometry" />
        </mxCell>
        <mxCell id="YH6l0BzgWT5LhHd5m2PT-34" style="rounded=0;orthogonalLoop=1;jettySize=auto;html=1;exitX=0.25;exitY=1;exitDx=0;exitDy=0;entryX=0.5;entryY=0;entryDx=0;entryDy=0;endArrow=none;endFill=0;" edge="1" parent="1" source="YH6l0BzgWT5LhHd5m2PT-4" target="YH6l0BzgWT5LhHd5m2PT-25">
          <mxGeometry relative="1" as="geometry" />
        </mxCell>
        <mxCell id="YH6l0BzgWT5LhHd5m2PT-35" style="rounded=0;orthogonalLoop=1;jettySize=auto;html=1;exitX=0.75;exitY=1;exitDx=0;exitDy=0;entryX=0.5;entryY=0;entryDx=0;entryDy=0;endArrow=none;endFill=0;" edge="1" parent="1" source="YH6l0BzgWT5LhHd5m2PT-4" target="YH6l0BzgWT5LhHd5m2PT-27">
          <mxGeometry relative="1" as="geometry" />
        </mxCell>
        <mxCell id="YH6l0BzgWT5LhHd5m2PT-4" value="students_in_events" style="rounded=0;whiteSpace=wrap;html=1;" vertex="1" parent="1">
          <mxGeometry x="30" y="300" width="120" height="50" as="geometry" />
        </mxCell>
        <mxCell id="YH6l0BzgWT5LhHd5m2PT-10" value="" style="rounded=0;orthogonalLoop=1;jettySize=auto;html=1;exitX=0.5;exitY=1;exitDx=0;exitDy=0;entryX=0.5;entryY=0;entryDx=0;entryDy=0;endArrow=none;endFill=0;" edge="1" parent="1" source="YH6l0BzgWT5LhHd5m2PT-1" target="YH6l0BzgWT5LhHd5m2PT-9">
          <mxGeometry relative="1" as="geometry">
            <mxPoint x="90" y="130" as="sourcePoint" />
            <mxPoint x="100" y="300" as="targetPoint" />
          </mxGeometry>
        </mxCell>
        <mxCell id="YH6l0BzgWT5LhHd5m2PT-9" value="" style="strokeWidth=1;html=1;shape=mxgraph.flowchart.decision;whiteSpace=wrap;" vertex="1" parent="1">
          <mxGeometry x="75" y="210" width="30" height="30" as="geometry" />
        </mxCell>
        <mxCell id="YH6l0BzgWT5LhHd5m2PT-13" value="" style="rounded=0;orthogonalLoop=1;jettySize=auto;html=1;exitX=1;exitY=1;exitDx=0;exitDy=0;entryX=0;entryY=0;entryDx=0;entryDy=0;endArrow=none;endFill=0;" edge="1" parent="1" source="YH6l0BzgWT5LhHd5m2PT-1" target="YH6l0BzgWT5LhHd5m2PT-12">
          <mxGeometry relative="1" as="geometry">
            <mxPoint x="140" y="130" as="sourcePoint" />
            <mxPoint x="300" y="300" as="targetPoint" />
          </mxGeometry>
        </mxCell>
        <mxCell id="YH6l0BzgWT5LhHd5m2PT-12" value="" style="strokeWidth=1;html=1;shape=mxgraph.flowchart.decision;whiteSpace=wrap;" vertex="1" parent="1">
          <mxGeometry x="210" y="200" width="30" height="30" as="geometry" />
        </mxCell>
        <mxCell id="YH6l0BzgWT5LhHd5m2PT-14" value="" style="strokeWidth=1;html=1;shape=mxgraph.flowchart.decision;whiteSpace=wrap;" vertex="1" parent="1">
          <mxGeometry x="335" y="190" width="30" height="30" as="geometry" />
        </mxCell>
        <mxCell id="YH6l0BzgWT5LhHd5m2PT-16" value="" style="strokeWidth=1;html=1;shape=mxgraph.flowchart.decision;whiteSpace=wrap;" vertex="1" parent="1">
          <mxGeometry x="210" y="310" width="30" height="30" as="geometry" />
        </mxCell>
        <mxCell id="YH6l0BzgWT5LhHd5m2PT-17" value="[0.&lt;span style=&quot;background-color: transparent; color: light-dark(rgb(0, 0, 0), rgb(255, 255, 255));&quot;&gt;.*]&lt;/span&gt;" style="text;html=1;align=center;verticalAlign=middle;whiteSpace=wrap;rounded=0;" vertex="1" parent="1">
          <mxGeometry x="140" y="110" width="60" height="30" as="geometry" />
        </mxCell>
        <mxCell id="YH6l0BzgWT5LhHd5m2PT-18" value="[1..1]" style="text;html=1;align=center;verticalAlign=middle;whiteSpace=wrap;rounded=0;" vertex="1" parent="1">
          <mxGeometry x="80" y="270" width="60" height="30" as="geometry" />
        </mxCell>
        <mxCell id="YH6l0BzgWT5LhHd5m2PT-19" value="[1..1]" style="text;html=1;align=center;verticalAlign=middle;whiteSpace=wrap;rounded=0;" vertex="1" parent="1">
          <mxGeometry x="140" y="300" width="60" height="30" as="geometry" />
        </mxCell>
        <mxCell id="YH6l0BzgWT5LhHd5m2PT-20" value="[0..1]" style="text;html=1;align=center;verticalAlign=middle;whiteSpace=wrap;rounded=0;" vertex="1" parent="1">
          <mxGeometry x="350" y="270" width="60" height="30" as="geometry" />
        </mxCell>
        <mxCell id="YH6l0BzgWT5LhHd5m2PT-21" value="[0.&lt;span style=&quot;background-color: transparent; color: light-dark(rgb(0, 0, 0), rgb(255, 255, 255));&quot;&gt;.*]&lt;/span&gt;" style="text;html=1;align=center;verticalAlign=middle;whiteSpace=wrap;rounded=0;" vertex="1" parent="1">
          <mxGeometry x="40" y="130" width="60" height="30" as="geometry" />
        </mxCell>
        <mxCell id="YH6l0BzgWT5LhHd5m2PT-22" value="[0.&lt;span style=&quot;background-color: transparent; color: light-dark(rgb(0, 0, 0), rgb(255, 255, 255));&quot;&gt;.*]&lt;/span&gt;" style="text;html=1;align=center;verticalAlign=middle;whiteSpace=wrap;rounded=0;" vertex="1" parent="1">
          <mxGeometry x="275" y="270" width="60" height="30" as="geometry" />
        </mxCell>
        <mxCell id="YH6l0BzgWT5LhHd5m2PT-23" value="[0.&lt;span style=&quot;background-color: transparent; color: light-dark(rgb(0, 0, 0), rgb(255, 255, 255));&quot;&gt;.*]&lt;/span&gt;" style="text;html=1;align=center;verticalAlign=middle;whiteSpace=wrap;rounded=0;" vertex="1" parent="1">
          <mxGeometry x="300" y="130" width="60" height="30" as="geometry" />
        </mxCell>
        <mxCell id="YH6l0BzgWT5LhHd5m2PT-24" value="[0.&lt;span style=&quot;background-color: transparent; color: light-dark(rgb(0, 0, 0), rgb(255, 255, 255));&quot;&gt;.*]&lt;/span&gt;" style="text;html=1;align=center;verticalAlign=middle;whiteSpace=wrap;rounded=0;" vertex="1" parent="1">
          <mxGeometry x="240" y="300" width="60" height="30" as="geometry" />
        </mxCell>
        <mxCell id="YH6l0BzgWT5LhHd5m2PT-25" value="grade" style="ellipse;whiteSpace=wrap;html=1;" vertex="1" parent="1">
          <mxGeometry x="20" y="380" width="70" height="50" as="geometry" />
        </mxCell>
        <mxCell id="YH6l0BzgWT5LhHd5m2PT-27" value="id" style="ellipse;whiteSpace=wrap;html=1;" vertex="1" parent="1">
          <mxGeometry x="105" y="380" width="70" height="50" as="geometry" />
        </mxCell>
        <mxCell id="YH6l0BzgWT5LhHd5m2PT-28" value="semester" style="ellipse;whiteSpace=wrap;html=1;" vertex="1" parent="1">
          <mxGeometry x="345" y="380" width="70" height="50" as="geometry" />
        </mxCell>
        <mxCell id="YH6l0BzgWT5LhHd5m2PT-29" value="name" style="ellipse;whiteSpace=wrap;html=1;" vertex="1" parent="1">
          <mxGeometry x="260" y="380" width="70" height="50" as="geometry" />
        </mxCell>
        <mxCell id="YH6l0BzgWT5LhHd5m2PT-30" value="room" style="ellipse;whiteSpace=wrap;html=1;" vertex="1" parent="1">
          <mxGeometry x="430" y="380" width="70" height="50" as="geometry" />
        </mxCell>
      </root>
    </mxGraphModel>
  </diagram>
</mxfile>
